<svg width="227" height="68" viewBox="0 0 227 68" fill="none" xmlns="http://www.w3.org/2000/svg">
<path d="M0 66.8V1.2H8.3V59.7H37V66.8H0Z" fill="white"/>
<path d="M70.1961 68C64.7294 68 59.8628 66.6 55.5961 63.8C51.3961 61 48.0961 57.0333 45.6961 51.9C43.3628 46.7667 42.1961 40.7 42.1961 33.7C42.1961 26.7 43.3628 20.7 45.6961 15.7C48.0961 10.6333 51.3961 6.76667 55.5961 4.1C59.8628 1.36667 64.7294 0 70.1961 0C75.7294 0 80.5961 1.36667 84.7961 4.1C88.9961 6.76667 92.2961 10.6333 94.6961 15.7C97.0961 20.7 98.2961 26.7 98.2961 33.7C98.2961 40.7 97.0961 46.7667 94.6961 51.9C92.2961 57.0333 88.9961 61 84.7961 63.8C80.5961 66.6 75.7294 68 70.1961 68ZM70.1961 60.7C74.1294 60.7 77.5294 59.6 80.3961 57.4C83.3294 55.1333 85.5961 52 87.1961 48C88.7961 43.9333 89.5961 39.1667 89.5961 33.7C89.5961 25.5667 87.8294 19.1333 84.2961 14.4C80.7628 9.66667 76.0628 7.3 70.1961 7.3C64.3294 7.3 59.6294 9.66667 56.0961 14.4C52.5628 19.1333 50.7961 25.5667 50.7961 33.7C50.7961 39.1667 51.5961 43.9333 53.1961 48C54.7961 52 57.0628 55.1333 59.9961 57.4C62.9294 59.6 66.3294 60.7 70.1961 60.7Z" fill="white"/>
<path d="M138.202 68C132.469 68 127.369 66.6667 122.902 64C118.436 61.2667 114.936 57.3667 112.402 52.3C109.869 47.2333 108.602 41.1333 108.602 34C108.602 26.9333 109.902 20.8667 112.502 15.8C115.102 10.7333 118.669 6.83333 123.202 4.1C127.736 1.36667 132.902 0 138.702 0C143.236 0 147.036 0.866667 150.102 2.6C153.236 4.26667 155.736 6.1 157.602 8.1L153.002 13.5C151.336 11.7667 149.402 10.3 147.202 9.1C145.002 7.9 142.236 7.3 138.902 7.3C134.502 7.3 130.669 8.4 127.402 10.6C124.136 12.7333 121.602 15.7667 119.802 19.7C118.069 23.6333 117.202 28.3333 117.202 33.8C117.202 42.0667 119.069 48.6333 122.802 53.5C126.602 58.3 132.002 60.7 139.002 60.7C141.336 60.7 143.569 60.3667 145.702 59.7C147.836 58.9667 149.536 58 150.802 56.8V39.7H136.902V32.8H158.402V60.4C156.336 62.6 153.536 64.4333 150.002 65.9C146.536 67.3 142.602 68 138.202 68Z" fill="white"/>
<path d="M198.321 68C192.854 68 187.988 66.6 183.721 63.8C179.521 61 176.221 57.0333 173.821 51.9C171.488 46.7667 170.321 40.7 170.321 33.7C170.321 26.7 171.488 20.7 173.821 15.7C176.221 10.6333 179.521 6.76667 183.721 4.1C187.988 1.36667 192.854 0 198.321 0C203.854 0 208.721 1.36667 212.921 4.1C217.121 6.76667 220.421 10.6333 222.821 15.7C225.221 20.7 226.421 26.7 226.421 33.7C226.421 40.7 225.221 46.7667 222.821 51.9C220.421 57.0333 217.121 61 212.921 63.8C208.721 66.6 203.854 68 198.321 68ZM198.321 60.7C202.254 60.7 205.654 59.6 208.521 57.4C211.454 55.1333 213.721 52 215.321 48C216.921 43.9333 217.721 39.1667 217.721 33.7C217.721 25.5667 215.954 19.1333 212.421 14.4C208.888 9.66667 204.188 7.3 198.321 7.3C192.454 7.3 187.754 9.66667 184.221 14.4C180.688 19.1333 178.921 25.5667 178.921 33.7C178.921 39.1667 179.721 43.9333 181.321 48C182.921 52 185.188 55.1333 188.121 57.4C191.054 59.6 194.454 60.7 198.321 60.7Z" fill="white"/>
</svg>
